<svg width="200" height="200" viewBox="0 0 200 200" fill="none" xmlns="http://www.w3.org/2000/svg">
<g clip-path="url(#clip0_3_1244)">
<path d="M176.069 171.556C171.979 175.851 168.11 178.622 165.052 180.81C129.116 206.537 86.5944 199.037 77.5572 197.206C64.2121 194.502 38.4166 189.275 19.7669 167.391C-8.44856 134.285 -4.05453 82.1268 17.8309 47.6959C21.8343 41.3979 42.9808 6.44314 85.9603 0.837307C111.971 -2.55528 142.291 4.28721 164.249 22.6416C210.339 61.1695 207.058 139.003 176.068 171.555L176.069 171.556Z" fill="#EDF8FE"/>
<path d="M100.093 132.678L96.4548 165.227H138.656L133.16 132.678H100.093Z" fill="url(#paint0_linear_3_1244)"/>
<path d="M26.6586 50.1558V126.866C26.6586 133.176 31.6982 138.337 38.0211 138.499C66.1023 139.221 164.315 140.973 191.046 140.581C195.641 140.513 199.362 136.845 199.495 132.262C200.011 114.442 200.848 71.5889 197.75 51.6941C197.097 47.5048 193.553 44.3716 189.305 44.2362C165.777 43.4853 61.6644 41.1008 34.9462 41.6991C30.3382 41.8022 26.6586 45.5581 26.6586 50.1572V50.1558Z" fill="#083864"/>
<path d="M31.4828 49.7825V122.662C31.4828 126.346 34.4471 129.348 38.1388 129.403L187.2 131.241C190.861 131.296 193.861 128.357 193.875 124.705L194.124 52.4765C194.134 49.8649 192.048 47.7247 189.431 47.661L36.8197 44.5851C33.8927 44.5141 31.4814 46.8621 31.4814 49.7832L31.4828 49.7825Z" fill="url(#paint1_linear_3_1244)"/>
<path d="M147.746 171.887H85.982C84.3038 171.887 83.0443 170.695 83.3681 169.415L84.1609 166.288C84.3993 165.347 85.4363 164.657 86.6678 164.618L146.211 162.765C147.498 162.724 148.637 163.406 148.917 164.384L150.346 169.365C150.718 170.659 149.452 171.888 147.746 171.888V171.887Z" fill="url(#paint2_linear_3_1244)"/>
<path d="M31.4828 49.7825V122.662C31.4828 126.346 34.4471 129.348 38.1388 129.403L187.2 131.241C190.861 131.296 193.861 128.357 193.875 124.705L194.124 52.4765C194.134 49.8649 192.048 47.7247 189.431 47.661L36.8197 44.5851C33.8927 44.5141 31.4814 46.8621 31.4814 49.7832L31.4828 49.7825Z" fill="#EDF8FE"/>
<path d="M194.096 60.9247L194.125 52.4608C194.135 49.8491 192.049 47.7169 189.433 47.6531L36.8606 44.5808C33.9337 44.5099 31.5618 46.8614 31.5618 49.7825V60.9247H194.096Z" fill="#1483EA"/>
<path d="M42.9972 54.8935C43.2189 53.9564 42.6373 53.0176 41.6982 52.7964C40.7591 52.5753 39.8181 53.1556 39.5964 54.0926C39.3748 55.0296 39.9564 55.9685 40.8955 56.1896C41.8346 56.4108 42.7756 55.8305 42.9972 54.8935Z" fill="#EDF8FE"/>
<path d="M49.0513 54.8931C49.2729 53.9561 48.6913 53.0172 47.7522 52.796C46.8131 52.5749 45.8721 53.1552 45.6505 54.0922C45.4288 55.0292 46.0104 55.9681 46.9496 56.1893C47.8887 56.4104 48.8296 55.8301 49.0513 54.8931Z" fill="#EDF8FE"/>
<path d="M54.9463 54.7772C55.1009 53.8269 54.4541 52.9315 53.5017 52.7772C52.5492 52.623 51.6518 53.2683 51.4972 54.2186C51.3426 55.1689 51.9894 56.0644 52.9418 56.2186C53.8943 56.3729 54.7917 55.7276 54.9463 54.7772Z" fill="#EDF8FE"/>
<path d="M185.04 127.256L41.7566 125.195C39.5786 125.164 37.83 123.393 37.83 121.22V106.912C37.83 104.89 39.4853 103.257 41.5117 103.28L185.132 104.909C186.781 104.928 188.108 106.267 188.108 107.913V124.24C188.108 125.923 186.727 127.28 185.041 127.256H185.04Z" fill="#BDDFFF"/>
<path d="M133.455 101.492L41.8622 100.177C39.6253 100.145 37.8293 98.327 37.8293 96.0951V67.8037C37.8293 66.2059 39.1277 64.9105 40.729 64.9105H132.846C134.684 64.9105 136.175 66.398 136.175 68.2322V98.8171C136.175 100.31 134.951 101.513 133.455 101.492Z" fill="#BDDFFF"/>
<path d="M185.082 101.53H141.446C139.905 101.53 138.656 100.284 138.656 98.7461V68.3791C138.656 66.4632 140.212 64.9105 142.132 64.9105H186.01C187.168 64.9105 188.108 65.8477 188.108 67.0034V98.5125C188.108 100.179 186.753 101.53 185.083 101.53H185.082Z" fill="#BDDFFF"/>
<path d="M9.54639 169.339C9.54639 170.498 10.4979 171.446 11.6598 171.446H125.958C127.12 171.446 128.071 170.498 128.071 169.339L129.022 103.802C129.022 102.644 127.654 100.381 125.146 100.552L13.4414 97.6678C11.9829 97.6299 10.5726 98.1902 9.53921 99.2176C8.50659 100.245 7.94145 101.649 7.97592 103.103L9.54568 169.339H9.54639Z" fill="#083864"/>
<path d="M11.6332 167.318C11.6332 168.416 12.533 169.313 13.6331 169.313H123.201C124.301 169.313 125.201 168.416 125.201 167.318L126.099 107.823C125.993 104.243 122.847 102.956 120.94 103.032L13.8815 100.166C12.8568 100.139 11.8658 100.533 11.1406 101.255C10.4146 101.978 10.0153 102.966 10.0412 103.989L11.6332 167.319V167.318Z" fill="#EDF8FE"/>
<path d="M0.679321 176.887L134.62 176.887C134.844 176.887 135.026 176.705 135.026 176.482V171.533C135.026 171.31 134.844 171.128 134.62 171.128L0.679321 171.128C0.455246 171.128 0.27359 171.31 0.27359 171.533V176.482C0.27359 176.705 0.455246 176.887 0.679321 176.887Z" fill="#083864"/>
<path d="M126.009 113.823L126.098 107.861C125.992 104.281 122.846 102.975 120.939 103.051L13.8808 100.176C12.8561 100.148 11.8651 100.537 11.1398 101.26C10.4138 101.982 10.0153 103.006 10.0404 104.029L10.286 113.823H126.009Z" fill="#1483EA"/>
<path d="M124.017 139.054H124.012C123.851 139.052 123.721 138.918 123.724 138.757L123.795 133.932C123.797 133.773 123.928 133.644 124.088 133.644H124.091C124.254 133.646 124.384 133.78 124.381 133.941L124.31 138.766C124.308 138.926 124.177 139.054 124.017 139.054Z" fill="white"/>
<path d="M77.6076 116.729H17.597C16.1046 116.729 14.8948 117.936 14.8948 119.426V141.436C14.8948 142.925 16.1046 144.132 17.597 144.132H77.6076C79.1 144.132 80.3098 142.925 80.3098 141.436V119.426C80.3098 117.936 79.1 116.729 77.6076 116.729Z" fill="#BDDFFF"/>
<path d="M85.6582 116.729H120.902C121.971 116.729 122.838 117.595 122.838 118.661V142.201C122.838 143.267 121.971 144.132 120.902 144.132H85.6582C84.5897 144.132 83.7222 143.267 83.7222 142.201V118.661C83.7222 117.595 84.5897 116.729 85.6582 116.729Z" fill="#BDDFFF"/>
<path d="M120.458 148.117H17.2745C15.9602 148.117 14.8948 149.181 14.8948 150.492V164.344C14.8948 165.655 15.9602 166.718 17.2745 166.718H120.458C121.772 166.718 122.838 165.655 122.838 164.344V150.492C122.838 149.181 121.772 148.117 120.458 148.117Z" fill="#BDDFFF"/>
<path d="M17.0966 107.031C17.2183 106.283 16.7092 105.578 15.9596 105.456C15.2099 105.335 14.5035 105.843 14.3818 106.591C14.2601 107.339 14.7692 108.044 15.5189 108.165C16.2686 108.286 16.9749 107.779 17.0966 107.031Z" fill="#EDF8FE"/>
<path d="M21.2947 107.908C21.8317 107.372 21.8317 106.503 21.2947 105.968C20.7576 105.432 19.8869 105.432 19.3499 105.968C18.8129 106.503 18.8129 107.372 19.3499 107.908C19.8869 108.444 20.7576 108.444 21.2947 107.908Z" fill="#EDF8FE"/>
<path d="M25.572 108.162C26.1091 107.626 26.1091 106.757 25.5721 106.221C25.035 105.685 24.1643 105.685 23.6273 106.221C23.0903 106.757 23.0903 107.626 23.6273 108.162C24.1643 108.698 25.035 108.698 25.572 108.162Z" fill="#EDF8FE"/>
<path d="M121.875 83.343C132.296 83.343 140.744 74.806 140.744 64.275C140.744 53.7441 132.296 45.207 121.875 45.207C111.453 45.207 103.005 53.7441 103.005 64.275C103.005 74.806 111.453 83.343 121.875 83.343Z" fill="white"/>
<path d="M121.21 74.5495C120.393 74.5495 119.632 74.1167 119.208 73.4045L112.109 61.4642C111.445 60.3465 111.803 58.897 112.909 58.2257C114.014 57.5543 115.449 57.9161 116.113 59.0332L121.041 67.3222L127.556 54.3924C128.141 53.231 129.548 52.7681 130.697 53.36C131.847 53.9511 132.304 55.3726 131.719 56.534L123.292 73.2605C122.907 74.025 122.141 74.5187 121.292 74.5488C121.265 74.5495 121.238 74.5502 121.21 74.5502V74.5495Z" fill="url(#paint3_linear_3_1244)"/>
<path d="M37.1435 156.517C47.5648 156.517 56.013 147.98 56.013 137.449C56.013 126.918 47.5648 118.381 37.1435 118.381C26.7222 118.381 18.2741 126.918 18.2741 137.449C18.2741 147.98 26.7222 156.517 37.1435 156.517Z" fill="white"/>
<path d="M36.4793 147.723C35.6614 147.723 34.9009 147.291 34.4773 146.578L27.3782 134.638C26.7139 133.52 27.0715 132.071 28.1774 131.399C29.2825 130.728 30.718 131.09 31.3823 132.207L36.3098 140.496L42.8244 127.566C43.4097 126.405 44.8164 125.942 45.9661 126.534C47.1158 127.125 47.5732 128.546 46.9879 129.708L38.5611 146.434C38.1755 147.199 37.41 147.693 36.5612 147.723C36.5339 147.723 36.5066 147.724 36.4793 147.724V147.723Z" fill="url(#paint4_linear_3_1244)"/>
<path d="M33.1861 46.7017C35.6198 41.9857 40.1452 38.6605 45.4024 38.0665L45.7622 15.358C45.765 15.1639 45.607 15.0041 45.4132 15.0062C30.5852 15.1667 17.5014 24.3744 11.3955 38.0135C11.3064 38.212 11.4048 38.4448 11.6087 38.5215L33.1861 46.701V46.7017Z" fill="url(#paint5_linear_3_1244)"/>
<path d="M62.4859 57.5815C62.1814 57.5736 61.9093 57.7671 61.8181 58.0566C61.5631 58.8684 61.0978 60.426 61.0217 60.623C60.6512 61.581 60.2167 62.516 59.7083 63.4095C58.7654 65.066 57.559 66.585 56.0711 67.7872C52.2997 70.8345 46.8773 71.4005 42.3555 69.8923C42.2262 69.8493 42.0991 69.8027 41.9713 69.7554C41.7358 69.6673 41.4715 69.7655 41.3502 69.9854L29.9468 90.735C35.484 93.5057 40.6945 94.2301 47.2321 93.8124C66.2257 92.5979 81.1406 77.2098 82.7965 58.1282L62.4859 57.5822V57.5815Z" fill="url(#paint6_linear_3_1244)"/>
<path d="M62.4859 57.5815C61.2494 65.1534 55.641 71.0702 48.0199 71.3282C45.8756 71.4005 43.3178 70.904 41.4371 70.1438C41.241 70.0643 41.0163 70.1445 40.91 70.3272L29.1892 90.4456C34.7265 93.2162 40.9789 94.5726 47.5165 94.1541C66.5101 92.9397 81.425 77.0844 83.0809 58.0028L62.4866 57.5815H62.4859Z" fill="url(#paint7_linear_3_1244)"/>
<path d="M26.7455 87.2687L38.0943 66.959C38.1747 66.815 38.1403 66.6359 38.0146 66.5299C34.5203 63.5944 31.7277 59.658 31.7277 54.5537C31.7277 53.2948 31.1683 51.4628 31.4246 50.2813L10.0821 42.6664C8.89721 46.5118 8.25739 50.6044 8.25739 54.8446C8.25739 68.5532 15.5576 80.6096 25.5808 87.5403C25.9728 87.8111 26.5136 87.685 26.7455 87.2694V87.2687Z" fill="url(#paint8_linear_3_1244)"/>
<path d="M25.6102 86.6919L37.3712 66.633C37.5206 66.3779 37.4689 66.0533 37.247 65.8584C33.8733 62.8979 31.727 58.4478 31.727 53.4259C31.727 52.167 31.8634 50.9397 32.1198 49.7582L10.4009 41.6575C10.2279 41.593 10.0354 41.6876 9.98227 41.8639C8.8606 45.614 8.25668 49.5955 8.25668 53.7161C8.25668 67.7579 15.21 79.8494 25.6102 86.6904V86.6919Z" fill="url(#paint9_linear_3_1244)"/>
<path d="M49.563 38.1747C56.2952 39.2981 61.5151 44.9541 62.3998 52.0216C62.4471 52.3999 62.7595 52.6886 63.1415 52.7015L95.7015 53.7906C95.8027 53.6924 95.8559 53.6408 95.9571 53.5434C95.8573 26.3654 76.3265 3.08163 50.1648 0L49.5638 38.1747H49.563Z" fill="url(#paint10_linear_3_1244)"/>
<path d="M173.821 69.6838C174.035 68.7746 172.753 68.1706 171.968 68.8054C163.998 75.2538 144.849 94.5639 149.621 128.311C155.609 170.65 145.372 186.1 132.63 195.524C132.63 195.524 150.129 191.093 161.139 175.416C188.171 136.926 170.015 85.8493 173.821 69.6845V69.6838Z" fill="#0AC775"/>
<path opacity="0.6" d="M167.755 82.9088C166.759 87.6226 165.87 92.35 165.183 97.0996C164.468 101.845 163.919 106.607 163.544 111.376C163.19 116.147 162.94 120.922 162.925 125.7C162.887 130.477 163.086 135.25 163.305 140.042C163.493 144.832 163.714 149.656 163.362 154.516C163.017 159.365 161.993 164.256 159.963 168.841C159.456 169.984 158.922 171.123 158.316 172.224C157.733 173.335 157.093 174.423 156.431 175.502C155.093 177.655 153.588 179.734 151.91 181.708C148.542 185.649 144.48 189.144 140.005 192.103C139.534 192.415 138.86 192.338 138.498 191.932C138.143 191.533 138.222 190.965 138.671 190.65L138.674 190.648C139.739 189.902 140.792 189.147 141.803 188.353C142.315 187.963 142.807 187.554 143.308 187.153C143.79 186.737 144.291 186.337 144.758 185.908C146.658 184.221 148.418 182.42 150.015 180.517C153.227 176.728 155.798 172.505 157.746 168.128C158.692 165.929 159.448 163.675 160 161.377C160.55 159.079 160.896 156.741 161.087 154.384C161.471 149.668 161.297 144.891 161.149 140.1C161.008 135.307 160.905 130.491 161.031 125.678C161.087 123.272 161.193 120.867 161.349 118.465C161.419 117.263 161.516 116.063 161.611 114.863C161.718 113.664 161.834 112.465 161.96 111.268C162.477 106.478 163.165 101.705 164.026 96.9564C164.913 92.2117 165.946 87.4894 167.188 82.8085C167.224 82.6745 167.378 82.5914 167.533 82.6215C167.684 82.6509 167.78 82.7784 167.752 82.9081L167.755 82.9088Z" fill="white"/>
<path d="M152.868 184.608C153.922 185.723 155.775 185.402 156.409 184.007C159.906 176.304 167.818 153.633 154.75 127.515C143.713 105.459 139.83 92.4532 138.477 86.4276C138.191 85.1536 136.441 84.9838 135.913 86.1789C130.084 99.3602 114.694 144.196 152.869 184.608L152.868 184.608Z" fill="#387B5E"/>
<path opacity="0.6" d="M154.782 183.795C154.82 183.802 154.858 183.805 154.898 183.804C155.229 183.799 155.493 183.527 155.488 183.197C155.482 182.822 154.752 145.381 140.795 114.022C140.661 113.721 140.307 113.585 140.004 113.719C139.701 113.853 139.565 114.207 139.699 114.508C153.554 145.638 154.284 182.843 154.29 183.215C154.294 183.506 154.506 183.745 154.783 183.794L154.782 183.795Z" fill="#EDF8FE"/>
<path d="M106.319 127.976C106.075 139.457 105.285 179.059 105.662 193.093C105.702 194.58 106.724 195.773 107.997 195.821C114.297 196.062 137.391 196.672 147.695 196.168C149.841 196.062 151.547 194.033 151.592 191.527C151.806 179.476 152.278 145.582 151.155 130.055C151.021 128.195 149.77 126.714 148.178 126.527C141.317 125.726 118.124 123.768 109.222 124.442C107.616 124.564 106.358 126.099 106.319 127.976H106.319Z" fill="#083864"/>
<path d="M109.13 131.498C108.791 140.765 107.721 171.594 108.061 182.993C108.11 184.66 109.235 186.007 110.662 186.104C116.533 186.506 136.563 187.39 145.174 186.584C146.724 186.44 147.942 184.976 148.025 183.162C148.461 173.708 149.714 145.003 149.389 133.731C149.337 131.933 148.143 130.464 146.608 130.303C140.257 129.638 118.972 128.053 111.655 128.52C110.281 128.607 109.189 129.893 109.13 131.498Z" fill="#EDF8FE"/>
<path opacity="0.5" d="M121.888 126.449C121.888 126.801 122.123 127.091 122.424 127.11C123.912 127.201 128.103 127.458 129.977 127.585C130.346 127.61 130.636 127.222 130.566 126.798L130.554 126.726C130.505 126.436 130.3 126.219 130.049 126.192C128.783 126.057 124.962 125.681 122.43 125.787C122.127 125.799 121.887 126.093 121.887 126.449H121.888Z" fill="white"/>
<path d="M149.44 137.239C149.435 135.994 149.418 134.769 149.389 133.743C149.337 131.945 148.143 130.471 146.608 130.31C140.257 129.644 118.972 128.057 111.655 128.524C110.281 128.611 109.189 129.908 109.13 131.512C109.077 132.949 109.039 134.082 108.96 136.324L149.44 137.238V137.239Z" fill="#1483EA"/>
<path opacity="0.42" d="M128.912 156.989H112.358C111.379 156.989 110.586 156.174 110.586 155.168V140.665C110.586 139.747 111.322 139.008 112.216 139.029L128.923 139.44C129.843 139.463 130.576 140.235 130.576 141.179V155.279C130.576 156.223 129.83 156.989 128.911 156.989H128.912Z" fill="#BDDFFF"/>
<path opacity="0.42" d="M132.543 139.481H146.882C147.162 139.481 147.389 139.707 147.389 139.987V156.45C147.389 156.748 147.147 156.989 146.849 156.989H132.685C132.329 156.989 132.039 156.7 132.039 156.345V139.983C132.039 139.706 132.265 139.481 132.543 139.481Z" fill="#BDDFFF"/>
<path opacity="0.42" d="M110.458 159.285H146.846C147.146 159.285 147.389 159.528 147.389 159.827V170.683C147.389 170.969 147.157 171.202 146.869 171.202H110.567C110.249 171.202 109.992 170.945 109.992 170.628V159.752C109.992 159.495 110.201 159.286 110.458 159.286V159.285Z" fill="#BDDFFF"/>
<path opacity="0.42" d="M143.513 184.653L111.68 184.211C110.736 184.198 109.979 183.511 109.979 182.668V174.979C109.979 174.238 110.652 173.637 111.483 173.637H144.972C145.766 173.637 146.411 174.211 146.413 174.92L146.434 182.08C146.439 183.516 145.122 184.676 143.513 184.654V184.653Z" fill="#BDDFFF"/>
<path opacity="0.74" d="M112.877 134.496C113.451 134.259 113.723 133.603 113.485 133.031C113.248 132.459 112.59 132.187 112.017 132.424C111.444 132.661 111.171 133.317 111.409 133.889C111.646 134.461 112.304 134.733 112.877 134.496Z" fill="white"/>
<path opacity="0.74" d="M116.986 134.361C117.425 133.924 117.425 133.214 116.986 132.776C116.548 132.338 115.836 132.338 115.397 132.776C114.958 133.214 114.958 133.924 115.397 134.361C115.836 134.799 116.548 134.799 116.986 134.361Z" fill="white"/>
<path opacity="0.74" d="M120.117 134.812C120.691 134.575 120.963 133.919 120.725 133.347C120.488 132.775 119.83 132.503 119.257 132.74C118.684 132.977 118.411 133.633 118.649 134.205C118.886 134.777 119.544 135.049 120.117 134.812Z" fill="white"/>
<path d="M130.338 169.606C138.402 169.606 144.939 163 144.939 154.851C144.939 146.702 138.402 140.096 130.338 140.096C122.274 140.096 115.737 146.702 115.737 154.851C115.737 163 122.274 169.606 130.338 169.606Z" fill="white"/>
<path d="M129.824 162.802C129.191 162.802 128.603 162.467 128.275 161.916L122.782 152.676C122.267 151.812 122.545 150.69 123.4 150.17C124.255 149.651 125.366 149.93 125.88 150.795L129.693 157.209L134.734 147.204C135.187 146.305 136.276 145.947 137.165 146.405C138.055 146.863 138.409 147.963 137.956 148.861L131.435 161.804C131.137 162.396 130.544 162.778 129.887 162.8C129.866 162.801 129.845 162.802 129.824 162.802Z" fill="url(#paint11_linear_3_1244)"/>
</g>
<defs>
<linearGradient id="paint0_linear_3_1244" x1="118.394" y1="181.796" x2="116.214" y2="138.53" gradientUnits="userSpaceOnUse">
<stop stop-color="#09005D"/>
<stop offset="1" stop-color="#1A0F91"/>
</linearGradient>
<linearGradient id="paint1_linear_3_1244" x1="120.181" y1="-9.34666" x2="107.008" y2="161.054" gradientUnits="userSpaceOnUse">
<stop stop-color="#53D8FF"/>
<stop offset="1" stop-color="#3840F7"/>
</linearGradient>
<linearGradient id="paint2_linear_3_1244" x1="118.53" y1="165.47" x2="98.4567" y2="209.644" gradientUnits="userSpaceOnUse">
<stop stop-color="#09005D"/>
<stop offset="1" stop-color="#1A0F91"/>
</linearGradient>
<linearGradient id="paint3_linear_3_1244" x1="121.875" y1="0.0730679" x2="121.875" y2="36.7739" gradientUnits="userSpaceOnUse">
<stop stop-color="#FEBBBA"/>
<stop offset="1" stop-color="#FF928E"/>
</linearGradient>
<linearGradient id="paint4_linear_3_1244" x1="37.1435" y1="0.0730629" x2="37.1435" y2="36.7739" gradientUnits="userSpaceOnUse">
<stop stop-color="#FEBBBA"/>
<stop offset="1" stop-color="#FF928E"/>
</linearGradient>
<linearGradient id="paint5_linear_3_1244" x1="59.2064" y1="-18.6302" x2="9.65118" y2="72.7275" gradientUnits="userSpaceOnUse">
<stop stop-color="#FEBBBA"/>
<stop offset="1" stop-color="#FF928E"/>
</linearGradient>
<linearGradient id="paint6_linear_3_1244" x1="46.6669" y1="50.4009" x2="56.4227" y2="74.6664" gradientUnits="userSpaceOnUse">
<stop stop-color="#FF928E"/>
<stop offset="1" stop-color="#FE7062"/>
</linearGradient>
<linearGradient id="paint7_linear_3_1244" x1="97.3883" y1="2.0814" x2="47.8331" y2="93.439" gradientUnits="userSpaceOnUse">
<stop stop-color="#FEBBBA"/>
<stop offset="1" stop-color="#FF928E"/>
</linearGradient>
<linearGradient id="paint8_linear_3_1244" x1="71.4327" y1="119.281" x2="47.8984" y2="92.0651" gradientUnits="userSpaceOnUse">
<stop stop-color="#FF928E"/>
<stop offset="1" stop-color="#FE7062"/>
</linearGradient>
<linearGradient id="paint9_linear_3_1244" x1="62.4299" y1="-16.8813" x2="12.874" y2="74.4763" gradientUnits="userSpaceOnUse">
<stop stop-color="#FEBBBA"/>
<stop offset="1" stop-color="#FF928E"/>
</linearGradient>
<linearGradient id="paint10_linear_3_1244" x1="47.1014" y1="11.3679" x2="111.605" y2="70.6731" gradientUnits="userSpaceOnUse">
<stop stop-color="#E1473D"/>
<stop offset="1" stop-color="#E9605A"/>
</linearGradient>
<linearGradient id="paint11_linear_3_1244" x1="130.338" y1="0.0731497" x2="130.338" y2="36.774" gradientUnits="userSpaceOnUse">
<stop stop-color="#FEBBBA"/>
<stop offset="1" stop-color="#FF928E"/>
</linearGradient>
<clipPath id="clip0_3_1244">
<rect width="200" height="200" fill="white"/>
</clipPath>
</defs>
</svg>
